<svg id="visual" viewBox="0 0 1920 1200" width="1920" height="1200" xmlns="http://www.w3.org/2000/svg" xmlns:xlink="http://www.w3.org/1999/xlink" version="1.1"><rect x="0" y="0" width="1920" height="1200" fill="#77b2de"></rect><path d="M0 868L24.7 867.5C49.3 867 98.7 866 147.8 854.2C197 842.3 246 819.7 295.2 813.3C344.3 807 393.7 817 443 822.2C492.3 827.3 541.7 827.7 590.8 826.7C640 825.7 689 823.3 738.2 829.5C787.3 835.7 836.7 850.3 886 846.7C935.3 843 984.7 821 1034 815.7C1083.3 810.3 1132.7 821.7 1181.8 819.8C1231 818 1280 803 1329.2 806.3C1378.3 809.7 1427.7 831.3 1477 841.5C1526.3 851.7 1575.7 850.3 1624.8 846.7C1674 843 1723 837 1772.2 829.3C1821.3 821.7 1870.7 812.3 1895.3 807.7L1920 803L1920 1201L1895.3 1201C1870.7 1201 1821.3 1201 1772.2 1201C1723 1201 1674 1201 1624.8 1201C1575.7 1201 1526.3 1201 1477 1201C1427.7 1201 1378.3 1201 1329.2 1201C1280 1201 1231 1201 1181.8 1201C1132.7 1201 1083.3 1201 1034 1201C984.7 1201 935.3 1201 886 1201C836.7 1201 787.3 1201 738.2 1201C689 1201 640 1201 590.8 1201C541.7 1201 492.3 1201 443 1201C393.7 1201 344.3 1201 295.2 1201C246 1201 197 1201 147.8 1201C98.7 1201 49.3 1201 24.7 1201L0 1201Z" fill="#0066ff"></path><path d="M0 885L24.7 894.5C49.3 904 98.7 923 147.8 919.5C197 916 246 890 295.2 879.7C344.3 869.3 393.7 874.7 443 877C492.3 879.3 541.7 878.7 590.8 885.2C640 891.7 689 905.3 738.2 902.7C787.3 900 836.7 881 886 880.5C935.3 880 984.7 898 1034 899C1083.3 900 1132.7 884 1181.8 882.7C1231 881.3 1280 894.7 1329.2 895.7C1378.3 896.7 1427.7 885.3 1477 889.8C1526.3 894.3 1575.7 914.7 1624.8 923.7C1674 932.7 1723 930.3 1772.2 929.3C1821.3 928.3 1870.7 928.7 1895.3 928.8L1920 929L1920 1201L1895.3 1201C1870.7 1201 1821.3 1201 1772.2 1201C1723 1201 1674 1201 1624.8 1201C1575.7 1201 1526.3 1201 1477 1201C1427.7 1201 1378.3 1201 1329.2 1201C1280 1201 1231 1201 1181.8 1201C1132.7 1201 1083.3 1201 1034 1201C984.7 1201 935.3 1201 886 1201C836.7 1201 787.3 1201 738.2 1201C689 1201 640 1201 590.8 1201C541.7 1201 492.3 1201 443 1201C393.7 1201 344.3 1201 295.2 1201C246 1201 197 1201 147.8 1201C98.7 1201 49.3 1201 24.7 1201L0 1201Z" fill="#0a57f0"></path><path d="M0 995L24.7 994.2C49.3 993.3 98.7 991.7 147.8 986.7C197 981.7 246 973.3 295.2 974.7C344.3 976 393.7 987 443 993.7C492.3 1000.3 541.7 1002.7 590.8 997.2C640 991.7 689 978.3 738.2 979.2C787.3 980 836.7 995 886 1000.7C935.3 1006.3 984.7 1002.7 1034 992.7C1083.3 982.7 1132.7 966.3 1181.8 956.3C1231 946.3 1280 942.7 1329.2 940.7C1378.3 938.7 1427.7 938.3 1477 947C1526.3 955.7 1575.7 973.3 1624.8 977.2C1674 981 1723 971 1772.2 962.8C1821.3 954.7 1870.7 948.3 1895.3 945.2L1920 942L1920 1201L1895.3 1201C1870.7 1201 1821.3 1201 1772.2 1201C1723 1201 1674 1201 1624.8 1201C1575.7 1201 1526.3 1201 1477 1201C1427.7 1201 1378.3 1201 1329.2 1201C1280 1201 1231 1201 1181.8 1201C1132.7 1201 1083.3 1201 1034 1201C984.7 1201 935.3 1201 886 1201C836.7 1201 787.3 1201 738.2 1201C689 1201 640 1201 590.8 1201C541.7 1201 492.3 1201 443 1201C393.7 1201 344.3 1201 295.2 1201C246 1201 197 1201 147.8 1201C98.7 1201 49.3 1201 24.7 1201L0 1201Z" fill="#1247e0"></path><path d="M0 1055L24.7 1051.3C49.3 1047.7 98.7 1040.3 147.8 1040C197 1039.7 246 1046.3 295.2 1054.3C344.3 1062.3 393.7 1071.7 443 1065C492.3 1058.3 541.7 1035.7 590.8 1031.8C640 1028 689 1043 738.2 1054.5C787.3 1066 836.7 1074 886 1068.2C935.3 1062.3 984.7 1042.7 1034 1036.3C1083.3 1030 1132.7 1037 1181.8 1042.5C1231 1048 1280 1052 1329.2 1051C1378.3 1050 1427.7 1044 1477 1040.3C1526.3 1036.7 1575.7 1035.3 1624.8 1036.3C1674 1037.3 1723 1040.7 1772.2 1038.2C1821.3 1035.7 1870.7 1027.3 1895.3 1023.2L1920 1019L1920 1201L1895.3 1201C1870.7 1201 1821.3 1201 1772.2 1201C1723 1201 1674 1201 1624.8 1201C1575.7 1201 1526.3 1201 1477 1201C1427.7 1201 1378.3 1201 1329.2 1201C1280 1201 1231 1201 1181.8 1201C1132.7 1201 1083.3 1201 1034 1201C984.7 1201 935.3 1201 886 1201C836.7 1201 787.3 1201 738.2 1201C689 1201 640 1201 590.8 1201C541.7 1201 492.3 1201 443 1201C393.7 1201 344.3 1201 295.2 1201C246 1201 197 1201 147.8 1201C98.7 1201 49.3 1201 24.7 1201L0 1201Z" fill="#1737d1"></path><path d="M0 1092L24.7 1092C49.3 1092 98.7 1092 147.8 1092.8C197 1093.7 246 1095.3 295.2 1097.3C344.3 1099.3 393.7 1101.7 443 1110.2C492.3 1118.7 541.7 1133.3 590.8 1139C640 1144.7 689 1141.3 738.2 1140C787.3 1138.7 836.7 1139.3 886 1132.2C935.3 1125 984.7 1110 1034 1101.7C1083.3 1093.3 1132.7 1091.7 1181.8 1098.3C1231 1105 1280 1120 1329.2 1122.3C1378.3 1124.7 1427.7 1114.3 1477 1109.3C1526.3 1104.3 1575.7 1104.7 1624.8 1112.3C1674 1120 1723 1135 1772.2 1142.7C1821.3 1150.3 1870.7 1150.7 1895.3 1150.8L1920 1151L1920 1201L1895.3 1201C1870.7 1201 1821.3 1201 1772.2 1201C1723 1201 1674 1201 1624.8 1201C1575.7 1201 1526.3 1201 1477 1201C1427.7 1201 1378.3 1201 1329.2 1201C1280 1201 1231 1201 1181.8 1201C1132.7 1201 1083.3 1201 1034 1201C984.7 1201 935.3 1201 886 1201C836.7 1201 787.3 1201 738.2 1201C689 1201 640 1201 590.8 1201C541.7 1201 492.3 1201 443 1201C393.7 1201 344.3 1201 295.2 1201C246 1201 197 1201 147.8 1201C98.7 1201 49.3 1201 24.7 1201L0 1201Z" fill="#1b25c1"></path></svg>